<svg width="494" height="514" viewBox="0 0 494 514" fill="none" xmlns="http://www.w3.org/2000/svg">
<path d="M143.862 414.09C142.604 414.284 141.124 414.386 140.824 415.945C140.592 417.153 140.68 418.396 141.376 419.444C142.565 421.234 144.331 422.279 146.459 421.91C148.361 421.58 150.974 419.787 150.974 417.559C150.974 416.303 150.104 415.039 149.385 414.099C148.614 413.092 147.948 412.032 146.977 411.208C145.668 410.097 144.611 409.988 143.433 411.298C142.789 412.015 142.18 412.993 141.898 413.932C141.759 414.395 141.861 414.766 141.861 415.23C141.861 415.848 141.751 414.936 141.861 414.63" stroke="#00ADB5" stroke-opacity="0.5" stroke-linecap="round" stroke-linejoin="round"/>
<path d="M150.381 417.63C151.452 418.619 152.359 419.513 154.252 419.561C155.577 419.595 156.902 419.251 158.144 418.88C159.033 418.615 161.884 417.21 159.574 417.097" stroke="#00ADB5" stroke-opacity="0.5" stroke-linecap="round" stroke-linejoin="round"/>
<path d="M161.42 409.003C160.007 410.626 158.058 413.807 158.79 416.245C159.047 417.102 159.421 417.679 159.905 418.412C160.879 419.885 162.389 419.426 163.758 419.041C164.75 418.762 165.93 417.883 166.31 416.883C166.834 415.503 165.741 413.345 164.828 412.395C163.808 411.334 163 410.043 161.864 409.114C161.562 408.867 161.333 408.599 160.938 408.69C160.495 408.793 160.313 409.234 160.901 409.234" stroke="#00ADB5" stroke-opacity="0.5" stroke-linecap="round" stroke-linejoin="round"/>
<path d="M261.288 186.582C260.03 186.776 258.55 186.878 258.25 188.437C258.018 189.645 258.106 190.888 258.802 191.936C259.991 193.726 261.757 194.771 263.885 194.402C265.787 194.072 268.4 192.279 268.4 190.051C268.4 188.795 267.531 187.531 266.811 186.591C266.04 185.583 265.374 184.524 264.404 183.7C263.094 182.589 262.037 182.48 260.86 183.79C260.216 184.507 259.606 185.485 259.325 186.424C259.186 186.887 259.287 187.258 259.287 187.722C259.287 188.34 259.177 187.428 259.287 187.122" stroke="#00ADB5" stroke-opacity="0.5" stroke-linecap="round" stroke-linejoin="round"/>
<path d="M267.807 190.122C268.878 191.11 269.785 192.005 271.678 192.053C273.003 192.087 274.328 191.743 275.57 191.372C276.459 191.107 279.31 189.702 277 189.589" stroke="#00ADB5" stroke-opacity="0.5" stroke-linecap="round" stroke-linejoin="round"/>
<path d="M278.846 181.495C277.433 183.118 275.484 186.298 276.216 188.737C276.473 189.594 276.847 190.171 277.331 190.903C278.305 192.377 279.815 191.918 281.184 191.533C282.176 191.254 283.356 190.375 283.736 189.375C284.26 187.994 283.167 185.837 282.254 184.887C281.234 183.826 280.427 182.535 279.291 181.606C278.988 181.359 278.759 181.091 278.364 181.182C277.921 181.285 277.739 181.726 278.327 181.726" stroke="#00ADB5" stroke-opacity="0.5" stroke-linecap="round" stroke-linejoin="round"/>
<path d="M152.933 139.395C160.186 135.8 166.049 129.855 171.945 124.249C176.579 119.843 181.438 115.49 186.552 111.688C187.561 110.937 188.987 109.428 190.351 110.071C191.702 110.709 192.482 112.445 193.55 113.473C196.181 116.005 198.546 119.099 200.709 122.074C203.091 125.349 199.52 127.162 197.312 129.306C194.805 131.742 192.411 134.254 189.672 136.403C187.068 138.446 184.977 141.262 182.593 143.575C178.961 147.1 175.564 150.853 171.943 154.381C169.787 156.482 167.313 158.196 165.237 160.371C164.51 161.133 163.837 162.141 162.998 162.775C162.324 163.285 161.391 161.325 161.152 160.956C159.248 158.026 156.298 156.022 154.434 152.957C153.262 151.03 152.473 148.652 151.07 146.892C150.4 146.052 148.726 144.161 149.459 142.934C150.208 141.681 152.335 141.081 153.496 140.184C154.4 139.484 155.499 138.621 156.529 138.134C157.277 137.781 158.011 137.154 158.68 136.672C160.441 135.402 158.575 135.945 157.384 136.417" stroke="#00ADB5" stroke-opacity="0.5" stroke-linecap="round" stroke-linejoin="round"/>
<path d="M154.041 145.148C158.457 147.992 162.417 152.108 165.864 156.167C165.952 156.27 166.791 156.878 166.663 157.103C166.416 157.538 163.55 155.575 163.276 155.379" stroke="#00ADB5" stroke-opacity="0.5" stroke-linecap="round" stroke-linejoin="round"/>
<path d="M158.419 141.036C161.998 142.103 164.132 144.132 167.022 146.303C168.309 147.27 169.621 148.143 170.776 149.281C171.319 149.815 171.705 150.518 172.207 151.094C172.894 151.883 170.088 150.178 169.757 149.981" stroke="#00ADB5" stroke-opacity="0.5" stroke-linecap="round" stroke-linejoin="round"/>
<path d="M163.62 137.849C166.125 140.201 168.643 142.521 171.227 144.779C172.208 145.636 173.323 146.423 174.17 147.434C175.675 149.227 173.704 146.9 173.035 146.243" stroke="#00ADB5" stroke-opacity="0.5" stroke-linecap="round" stroke-linejoin="round"/>
<path d="M167.13 135.606C168.988 136.781 170.929 137.92 172.502 139.505C173.148 140.156 173.683 140.922 174.373 141.524C175.223 142.266 175.968 143.132 176.823 143.853C178.042 144.88 178.225 145.18 176.778 143.891" stroke="#00ADB5" stroke-opacity="0.5" stroke-linecap="round" stroke-linejoin="round"/>
<path d="M171.655 132.154C173.705 133.824 175.602 135.519 177.316 137.555C178.076 138.457 178.687 139.498 179.651 140.19C180.534 140.824 181.152 141.007 180.119 139.977" stroke="#00ADB5" stroke-opacity="0.5" stroke-linecap="round" stroke-linejoin="round"/>
<path d="M176.011 128.637C177.816 130.048 179.595 131.336 181.037 133.154C181.697 133.986 182.218 134.942 182.955 135.709C184.452 137.268 183.423 136.482 182.34 135.424" stroke="#00ADB5" stroke-opacity="0.5" stroke-linecap="round" stroke-linejoin="round"/>
<path d="M180.029 124.987C182.563 127.509 184.685 130.463 187.224 132.955C188.933 134.632 186.484 131.944 186.083 131.466" stroke="#00ADB5" stroke-opacity="0.5" stroke-linecap="round" stroke-linejoin="round"/>
<path d="M184.934 122.085C187.067 121.179 189.28 120.099 190.426 117.885C190.742 117.274 191.149 116.742 191.279 116.054C191.457 115.109 191.423 115.515 190.749 116.126" stroke="#00ADB5" stroke-opacity="0.5" stroke-linecap="round" stroke-linejoin="round"/>
<path d="M188.368 125.133C190.059 123.5 191.949 121.716 193.189 119.644C193.807 118.61 194.984 117.348 193.338 118.844" stroke="#00ADB5" stroke-opacity="0.5" stroke-linecap="round" stroke-linejoin="round"/>
<path d="M193.79 128.555C195.33 126.813 196.701 125.192 198.12 123.371C198.578 122.782 199.974 122.018 198.294 122.485" stroke="#00ADB5" stroke-opacity="0.5" stroke-linecap="round" stroke-linejoin="round"/>
<path d="M192.564 127.675C194.176 126.237 196 124.562 197.278 122.747C197.619 122.262 197.881 121.723 198.194 121.22C198.716 120.377 198.75 120.661 197.956 120.748" stroke="#00ADB5" stroke-opacity="0.5" stroke-linecap="round" stroke-linejoin="round"/>
<path d="M158.395 148.053C166.43 144.657 168.412 135.44 174.96 130.228C175.756 129.594 176.403 128.889 177.332 128.45C177.953 128.157 178.72 128.016 179.286 127.641C179.63 127.412 182.494 125.135 180.504 126.076" stroke="#00ADB5" stroke-opacity="0.5" stroke-linecap="round" stroke-linejoin="round"/>
<path d="M154.654 145.588C155.556 144.447 156.356 143.471 157.5 142.646C157.688 142.51 157.977 142.488 158.132 142.307C158.437 141.949 158.9 141.425 159.018 140.964C159.482 139.145 161.749 139.481 162.953 138.569C164.098 137.702 165.2 136.823 166.368 135.966C167.654 135.022 168.249 134.194 169.282 132.984C170.231 131.872 171.152 130.748 172.156 129.696C172.978 128.835 174.269 128.052 174.792 126.95C175.382 125.707 176.89 124.284 178.248 124.514C178.715 124.594 182.141 126.66 179.902 125.339" stroke="#00ADB5" stroke-opacity="0.5" stroke-linecap="round" stroke-linejoin="round"/>
<path d="M161.925 150.033C167.962 146.72 171.313 139.495 175.391 134.037C176.893 132.027 179.04 130.691 180.612 128.716C181.285 127.871 182.77 126.974 181.043 126.989" stroke="#00ADB5" stroke-opacity="0.5" stroke-linecap="round" stroke-linejoin="round"/>
<path d="M164.08 152.08C169.551 148.58 173.054 142.069 177.035 136.91C178.845 134.562 180.593 132.166 182.426 129.837C183.262 128.776 184.719 128.113 182.849 129.2" stroke="#00ADB5" stroke-opacity="0.5" stroke-linecap="round" stroke-linejoin="round"/>
<path d="M166.236 155.732C169.649 152.268 172.406 148.53 175.199 144.523C176.897 142.087 178.366 139.348 180.36 137.155C181.504 135.896 182.385 134.422 183.424 133.088C183.843 132.55 184.131 131.924 184.562 131.391C185.53 130.19 184.855 131.276 184.18 131.928" stroke="#00ADB5" stroke-opacity="0.5" stroke-linecap="round" stroke-linejoin="round"/>
<path d="M167.038 157.25C168.737 155.518 171.226 153.852 172.36 151.605C172.771 150.79 173.789 148.821 174.504 148.322C175.447 147.662 175.897 146.259 176.584 145.377C177.3 144.458 178 143.561 178.777 142.687C179.505 141.867 179.738 140.428 180.639 139.723C181.643 138.937 182.132 137.72 182.933 136.782C183.626 135.97 184.945 135.129 185.805 134.508C186.282 134.165 186.615 133.696 187.155 133.441C188.251 132.923 187.54 133.188 186.537 133.149" stroke="#00ADB5" stroke-opacity="0.5" stroke-linecap="round" stroke-linejoin="round"/>
<path d="M184.796 122.734C186.202 123.119 187.935 123.384 189.215 124.181C190.042 124.695 190.761 125.211 189.256 124.275" stroke="#00ADB5" stroke-opacity="0.5" stroke-linecap="round" stroke-linejoin="round"/>
<path d="M186.256 120.293C188.26 120.838 189.677 121.449 191.312 122.558C192.381 123.283 192.209 123.082 191.096 122.384" stroke="#00ADB5" stroke-opacity="0.5" stroke-linecap="round" stroke-linejoin="round"/>
<path d="M188.688 117.83C190.409 118.837 192.079 119.982 193.859 120.859C194.906 121.375 194.357 121.339 193.549 120.933" stroke="#00ADB5" stroke-opacity="0.5" stroke-linecap="round" stroke-linejoin="round"/>
<path d="M190.073 115.862C191.883 116.719 193.552 117.573 195.218 118.652C195.978 119.144 195.289 119.176 194.712 118.778" stroke="#00ADB5" stroke-opacity="0.5" stroke-linecap="round" stroke-linejoin="round"/>
<path d="M185.684 121.876C187.052 120.184 188.424 118.581 189.669 116.847C190.023 116.355 192.178 113.612 191.246 115.016" stroke="#00ADB5" stroke-opacity="0.5" stroke-linecap="round" stroke-linejoin="round"/>
<path d="M187.121 124.846C188.9 123.209 191.465 121.027 192.039 118.582C192.208 117.862 192.575 117.143 193.112 116.647C193.657 116.145 194.227 115.919 193.413 116.765" stroke="#00ADB5" stroke-opacity="0.5" stroke-linecap="round" stroke-linejoin="round"/>
<path d="M185.694 124.791C187.591 122.664 189.213 121.235 190.285 118.616C190.563 117.936 190.883 117.372 191.34 116.836C191.824 116.269 192.519 115.738 191.584 116.753" stroke="#00ADB5" stroke-opacity="0.5" stroke-linecap="round" stroke-linejoin="round"/>
<path d="M192.744 125.838C193.618 126.414 194.494 126.948 195.402 127.428C195.777 127.626 195.313 127.243 195.153 127.18" stroke="#00ADB5" stroke-opacity="0.5" stroke-linecap="round" stroke-linejoin="round"/>
<path d="M194.447 122.99C194.506 123.042 197.94 126.105 197.331 125.422" stroke="#00ADB5" stroke-opacity="0.5" stroke-linecap="round" stroke-linejoin="round"/>
<path d="M196.487 121.88C197.245 122.639 199.565 124.857 198.748 124.168" stroke="#00ADB5" stroke-opacity="0.5" stroke-linecap="round" stroke-linejoin="round"/>
<path d="M191.729 127.047C192.984 125.831 195.738 123.42 196.413 121.55C196.679 120.813 197.897 119.866 196.751 120.879" stroke="#00ADB5" stroke-opacity="0.5" stroke-linecap="round" stroke-linejoin="round"/>
<path d="M191.887 127.41C192.006 127.51 194.408 130.201 194.92 128.896C195.182 128.23 195.522 127.362 196.163 126.995C197.289 126.351 197.496 124.322 198.648 123.778C199.954 123.16 199.832 122.125 198.616 121.758C198.138 121.614 198.515 120.633 198.018 120.71C197.564 120.781 197.323 120.606 196.815 120.703" stroke="#00ADB5" stroke-opacity="0.5" stroke-linecap="round" stroke-linejoin="round"/>
<path d="M184.638 122.371C185.462 124.009 185.618 124.602 186.947 125.285C187.305 125.47 187.774 125.214 188.046 125.358C188.585 125.642 189.649 125.648 190.051 125.132C190.86 124.093 191.157 123.423 192.396 122.791C193.178 122.393 193.806 121.453 194.168 120.673C194.565 119.816 195.281 119.171 195.701 118.311C195.879 117.945 194.437 117.002 194.424 116.368C194.42 116.188 192.708 116.183 192.423 116.033C192.078 115.85 191.919 115.593 191.754 115.214C191.512 114.659 191.083 115.348 190.433 115.4" stroke="#00ADB5" stroke-opacity="0.5" stroke-linecap="round" stroke-linejoin="round"/>
<path d="M156.114 143.147C158.059 143.916 159.756 144.908 161.508 146.006C163.028 146.96 164.747 147.467 166.258 148.391C167.334 149.049 168.45 150.551 169.244 151.537C169.509 151.866 169.706 152.173 169.894 152.544C170.324 153.394 169.876 151.339 169.831 151.114" stroke="#00ADB5" stroke-opacity="0.5" stroke-linecap="round" stroke-linejoin="round"/>
<path d="M174.901 127.701C175.441 128.291 177.625 131.545 177.194 129.099" stroke="#00ADB5" stroke-opacity="0.5" stroke-linecap="round" stroke-linejoin="round"/>
<path d="M179.398 353.572C179.629 354.811 180.218 355.616 180.674 356.743C180.985 357.511 181.566 358.106 181.889 358.859C182.238 359.672 182.761 360.628 183.248 361.352C183.666 361.972 183.94 362.56 184.466 363.109C185.398 364.077 186.102 365.232 187.038 366.187C188.397 367.575 190.7 369.386 192.681 369.272C193.318 369.235 194.022 369.44 194.647 369.342C195.182 369.258 195.832 369.23 196.369 369.326C197.251 369.484 198.207 369.325 199.051 369.515C199.506 369.618 200.002 369.468 200.462 369.557C201.06 369.672 201.76 369.701 202.369 369.701C204.363 369.701 206.351 369.688 208.339 369.426C209.416 369.283 210.484 369.655 211.55 369.458C212.551 369.272 213.884 369.464 214.825 369.035C215.982 368.508 217.133 367.68 218.027 366.75C218.475 366.284 218.816 365.727 219.119 365.15C219.518 364.393 219.739 363.576 220.14 362.82C221.537 360.186 222.334 357.253 223.465 354.507C223.731 353.859 224.17 353.335 224.489 352.737C224.57 352.586 224.606 352.392 224.738 352.247C225.231 351.704 224.287 351.646 223.852 351.441" stroke="#00ADB5" stroke-opacity="0.5" stroke-linecap="round" stroke-linejoin="round"/>
<path d="M179.176 353.687C180.166 352.341 181.005 351.351 182.443 350.59C183.646 349.952 184.895 349.195 185.983 348.362C187.654 347.084 189.954 346.514 191.989 346.129C194.204 345.71 196.384 345.22 198.639 345.22C199.336 345.22 200.026 345.438 200.724 345.45C201.559 345.465 202.396 345.492 203.227 345.566C204.503 345.679 205.813 345.652 207.09 345.681C208.873 345.721 210.579 346.681 212.362 346.83C213.422 346.918 214.659 347.083 215.69 347.383C216.076 347.496 216.516 347.572 216.877 347.754C217.325 347.981 217.64 348.365 218.052 348.631C219.382 349.492 220.868 349.897 222.305 350.551C222.746 350.752 223.503 351.095 223.991 351.095C224.662 351.095 224.627 352.385 224.627 351.095" stroke="#00ADB5" stroke-opacity="0.5" stroke-linecap="round" stroke-linejoin="round"/>
<path d="M224.516 351.902C223.695 353.047 223.11 353.483 221.945 354.152C221.031 354.676 220.018 355.048 218.993 355.243C218.036 355.425 216.991 355.568 216.022 355.649C215.215 355.716 214.392 355.619 213.567 355.716C211.704 355.937 209.823 356.437 208.025 356.984C205.459 357.764 202.981 357.845 200.33 357.995C197.437 358.158 194.535 357.928 191.7 357.316C190.744 357.11 189.733 357.295 188.76 357.256C187.688 357.212 186.637 356.905 185.629 356.542C185.204 356.389 184.813 356.155 184.368 356.049C183.846 355.926 183.317 355.974 182.799 355.844C182.078 355.663 181.237 355.336 180.628 354.897C180.363 354.706 179.965 354.549 179.757 354.26C179.697 354.176 179.619 353.989 179.619 353.889C179.619 353.651 179.431 353.711 179.73 353.918" stroke="#00ADB5" stroke-opacity="0.5" stroke-linecap="round" stroke-linejoin="round"/>
<path d="M200.712 363.595C201.385 363.517 202.276 363.53 201.997 362.629C201.908 362.339 201.682 362.308 201.444 362.225C200.732 361.978 199.457 362.457 199.189 363.23C198.709 364.618 199.618 366.118 201.047 365.637C201.436 365.506 202.125 365.22 202.372 364.853C202.669 364.412 202.224 364.542 201.93 364.113" stroke="#00ADB5" stroke-opacity="0.5" stroke-linecap="round" stroke-linejoin="round"/>
<path d="M198.663 362.097C199.737 361.649 200.287 361.464 201.373 361.464C201.811 361.464 202.03 361.432 202.416 361.694C203.053 362.128 203.272 362.952 203.206 363.678C203.15 364.291 202.955 365.131 202.748 365.713C202.594 366.146 202.212 366.221 201.822 366.302C201.465 366.376 200.688 366.169 200.407 366.331C200.109 366.503 199.198 366.561 198.968 366.241C198.756 365.947 198.528 365.82 198.374 365.464C198.227 365.123 198.16 364.798 198.042 364.459C197.879 363.994 197.587 362.723 198.193 362.443C198.548 362.279 198.7 362.18 199.106 362.18C199.222 362.18 199.32 362.27 199.438 362.27C199.608 362.27 199.11 362.155 198.94 362.155" stroke="#00ADB5" stroke-opacity="0.5" stroke-linecap="round" stroke-linejoin="round"/>
<path d="M200.601 357.489C201.382 356.439 202.094 355.355 202.901 354.334C203.335 353.785 203.874 353.313 204.341 352.788C205.679 351.285 207.042 349.639 208.062 347.882C209.067 346.152 210.439 344.267 211.928 342.967C212.715 342.28 213.418 341.522 214.103 340.73C214.767 339.962 215.073 338.889 215.702 338.077C216.189 337.449 219.379 333.174 219.934 335.773C220.152 336.795 219.194 337.509 218.593 338.135C217.911 338.845 217.225 339.747 216.643 340.554C216.082 341.332 215.401 342.016 214.856 342.801C214.115 343.868 212.767 344.632 212.227 345.841C211.781 346.838 211.041 347.64 210.486 348.564C209.716 349.845 208.815 350.915 207.908 352.087C207.19 353.016 206.065 353.78 205.556 354.84C205.13 355.724 204.377 356.097 203.689 356.67C203.389 356.919 203.025 357.058 202.76 357.403C202.672 357.518 202.514 357.65 202.431 357.521C202.384 357.448 202.204 357.613 202.237 357.694C202.355 357.981 202.068 357.005 202.04 356.913" stroke="#00ADB5" stroke-opacity="0.5" stroke-linecap="round" stroke-linejoin="round"/>
<path d="M200.158 357.777C200.37 357.889 201.708 358.946 201.708 358.094C201.708 357.836 202.026 357.406 202.139 357.144C202.224 356.945 201.459 357.135 201.345 357.288C201.196 357.486 200.908 357.648 201.376 357.662C201.735 357.673 202.016 357.512 202.289 357.291C202.368 357.227 203.424 357.401 202.483 357.374C201.983 357.359 201.496 357.374 201.016 357.374C200.601 357.374 201.442 357.259 201.564 357.259C201.66 357.259 200.862 357.753 200.724 357.592C200.69 357.552 200.632 357.444 200.767 357.374" stroke="#00ADB5" stroke-opacity="0.5" stroke-linecap="round" stroke-linejoin="round"/>
<path d="M182.553 353.515C182.615 353.549 184.594 354.627 184.602 354.494C184.611 354.333 184.5 354.192 184.577 354.033C184.912 353.337 185.345 353.671 185.921 353.94C186.37 354.151 185.688 351.82 187.044 352.804C187.744 353.313 187.931 353.232 187.816 352.379C187.728 351.733 187.943 351.731 188.477 351.799C188.84 351.846 189.1 351.928 189.307 351.569C189.559 351.133 189.842 350.885 190.356 351.073C190.782 351.229 191.161 351.668 191.454 351.108C191.583 350.862 191.474 350.125 191.881 350.267C192.137 350.355 192.473 350.702 192.764 350.593C192.985 350.51 193.154 349.799 193.404 349.911C193.664 350.029 193.93 350.543 194.259 350.42C194.418 350.361 194.712 349.821 194.4 349.886" stroke="#00ADB5" stroke-opacity="0.5" stroke-linecap="round" stroke-linejoin="round"/>
<path d="M190.359 352.478C191.045 353.059 193.615 356.162 194.37 353.844C194.505 353.429 194.526 352.607 194.905 353.287C195.217 353.848 195.687 354.237 196.197 353.707C196.535 353.355 196.685 352.758 197.169 352.574C197.612 352.405 197.938 353.273 198.307 352.766C198.604 352.357 198.46 351.654 198.024 351.409C197.88 351.328 197.84 351.606 197.778 351.671" stroke="#00ADB5" stroke-opacity="0.5" stroke-linecap="round" stroke-linejoin="round"/>
<path d="M196.283 348.907C197.352 348.715 198.699 348.326 199.512 349.323C199.889 349.784 199.853 350.374 199.604 350.897C199.422 351.279 198.933 351.47 198.62 351.095C198.364 350.788 198.892 350.281 199.081 350.094C199.729 349.451 200.69 350.48 200.893 351.179C201.062 351.762 199.53 353.114 199.715 352.535" stroke="#00ADB5" stroke-opacity="0.5" stroke-linecap="round" stroke-linejoin="round"/>
<path d="M214.275 350.865C214.593 350.751 216.635 350.067 216.243 351.198C216.042 351.778 215.272 352.089 214.767 352.279C214.528 352.369 213.911 352.354 214.312 351.991C214.659 351.678 215.148 351.531 215.603 351.569C217.38 351.719 214.896 353.843 214.385 354.136C213.394 354.705 212.046 355.303 211.008 354.609" stroke="#00ADB5" stroke-opacity="0.5" stroke-linecap="round" stroke-linejoin="round"/>
<path d="M203.369 347.466C203.79 348.18 204.297 348.896 204.657 349.646C204.781 349.904 204.245 349.243 204.119 348.986C204.086 348.918 203.855 348.162 203.833 348.167C203.564 348.23 203.5 349.514 203.427 349.751C203.082 350.873 202.23 350.443 201.394 350.359C200.382 350.258 199.93 351.296 199.37 351.959C198.923 352.49 198.747 352.653 199.051 353.284C199.296 353.795 199.398 354.291 199.051 354.753C198.779 355.114 198.44 355.342 198.113 355.64C197.813 355.912 198.243 355.867 198.186 355.704C198.033 355.256 197.085 355.349 196.775 355.371C195.623 355.45 194.449 355.149 193.318 355.223C192.717 355.263 192.151 355.612 191.555 355.704C190.95 355.797 191.75 356.343 191.977 356.5C192.367 356.771 191.213 355.925 190.79 355.716C190.079 355.366 189.423 355.095 189.055 354.321C188.686 353.545 188.362 353.016 187.739 352.446C187.524 352.249 187.498 351.951 187.603 351.684C187.846 351.067 188.385 350.565 188.92 350.231" stroke="#00ADB5" stroke-opacity="0.5" stroke-linecap="round" stroke-linejoin="round"/>
<path d="M203.258 349.771C201.87 348.763 200.725 348.329 199.094 348.1C198.52 348.02 197.908 347.606 197.534 347.15C197.203 346.744 197.391 346.852 196.999 347.402C196.465 348.155 196.068 347.479 195.385 347.678C194.338 347.981 193.439 348.994 192.377 349.182C192.086 349.233 192.156 348.727 191.792 348.945C191.18 349.312 190.712 349.66 189.996 349.777C189.563 349.848 188.743 350.144 188.809 350.692" stroke="#00ADB5" stroke-opacity="0.5" stroke-linecap="round" stroke-linejoin="round"/>
<path d="M212.669 349.771C214.008 349.905 215.365 349.887 216.698 350.036C217.168 350.088 217.408 350.286 217.738 350.606C218.036 350.894 218.501 351.574 218.928 351.611C219.544 351.664 219.863 351.398 220.438 351.211C220.785 351.098 221.89 351.211 221.527 351.211" stroke="#00ADB5" stroke-opacity="0.5" stroke-linecap="round" stroke-linejoin="round"/>
<path d="M211.673 351.326C210.234 352.313 209.465 353.81 207.924 354.708C207.619 354.886 206.685 355.231 206.755 355.816C206.806 356.239 209.925 354.914 210.4 354.667" stroke="#00ADB5" stroke-opacity="0.5" stroke-linecap="round" stroke-linejoin="round"/>
<path d="M217.043 352.708C217.826 353.314 218.5 354.181 219.479 353.873C219.744 353.79 220.298 353.757 220.475 353.572" stroke="#00ADB5" stroke-opacity="0.5" stroke-linecap="round" stroke-linejoin="round"/>
<path d="M410.512 327.597C406.469 328.404 403.53 329.619 400.967 333.047C399.344 335.219 399.7 338.638 400.764 340.941C402.517 344.736 406.827 346.879 410.715 347.065C415.245 347.281 421.542 345.896 422.471 340.275C422.969 337.262 420.202 334.413 418.907 331.942C417.853 329.931 416.266 327.221 414.047 326.371C413.142 326.024 411.04 326.144 410.381 327.082C410.086 327.501 409.708 327.944 409.493 328.414C409.32 328.796 409.506 327.444 409.464 327.052" stroke="#00ADB5" stroke-opacity="0.5" stroke-linecap="round" stroke-linejoin="round"/>
<path d="M412.214 337.951C411.123 338.535 409.353 338.921 410.308 340.199C410.526 340.491 410.836 340.475 411.101 340.199C411.327 339.964 412.468 338.728 411.625 338.436C409.906 337.84 410.535 341.407 411.763 339.829C412.422 338.981 411.499 338.146 410.672 338.663C409.686 339.278 410.466 340.353 411.239 339.42C411.822 338.716 411.357 338.177 410.723 338.837C410.155 339.428 410.732 340.37 411.29 339.571C411.863 338.752 411.21 338.058 410.519 338.776C409.719 339.608 410.585 339.521 411.152 338.973C411.723 338.421 410.71 338.502 410.381 338.935C409.617 339.941 410.814 339.798 411.006 338.935C411.29 337.668 410.033 340.58 410.643 338.36" stroke="#00ADB5" stroke-opacity="0.5" stroke-linecap="round" stroke-linejoin="round"/>
<path d="M407.762 333.728C408.925 335.325 410.117 336.839 411.094 338.436C411.364 338.878 411.148 339.322 411.297 339.314C411.848 339.282 412.413 339.178 413 339.178C414.343 339.178 415.4 338.496 416.695 338.496C418.263 338.496 420.566 338.073 417.975 336.725" stroke="#00ADB5" stroke-opacity="0.5" stroke-linecap="round" stroke-linejoin="round"/>
<path d="M406.452 327.461C406.208 326.172 405.012 323.05 407.238 323.381C408.036 323.5 408.572 324.359 409.042 324.902C410.264 326.315 410.134 328.021 408.155 328.142C407.636 328.174 406.906 329.243 406.321 328.482C405.659 327.621 406.335 327.679 406.452 326.643C406.529 325.965 406.104 326.022 405.921 325.356C405.781 324.846 406.072 324.287 406.19 323.918" stroke="#00ADB5" stroke-opacity="0.5" stroke-linecap="round" stroke-linejoin="round"/>
<path d="M407.238 325.962C407.226 326.287 406.744 329.22 407.769 328.74C408.112 328.579 408.409 328.345 408.548 327.975C408.682 327.617 408.539 327.402 408.387 327.052C407.997 326.149 406.864 324.745 407.209 326.779C407.427 328.063 408.804 327.763 408.911 326.537C408.993 325.601 407.859 324.347 407.136 325.417C406.625 326.174 407.535 327.842 408.067 326.673C408.338 326.08 407.692 324.571 407.005 325.311C406.302 326.069 407.359 327.669 408.053 327.022C408.739 326.382 408.273 324.43 407.529 325.175C406.849 325.856 407.869 327.212 408.387 326.174C408.965 325.016 407.692 324.143 407.296 325.356C406.943 326.439 408.045 327.604 408.3 326.128C408.494 325.005 406.511 324.408 406.511 325.75C406.511 326.987 407.573 326.86 407.573 325.735C407.573 324.562 406.438 324.826 406.911 325.81C407.384 326.795 408.018 325.048 407.485 324.493C406.864 323.847 406.041 324.847 406.773 325.47C407.271 325.895 407.954 324.132 407.114 323.805C406.39 323.522 406.791 325.061 407.042 324.713C407.431 324.173 406.834 323.811 407.245 323.918C407.608 324.012 408.488 324.214 408.737 324.546C408.932 324.808 409.726 326.265 409.726 326.643C409.726 327.8 408.025 328.424 407.049 328.134C406.349 327.926 406.141 328.441 406.387 328.27C406.983 327.857 407.107 326.779 407.107 327.188" stroke="#00ADB5" stroke-opacity="0.5" stroke-linecap="round" stroke-linejoin="round"/>
<path d="M407.107 346.943C406.433 348.432 405.835 349.927 405.041 351.334C404.863 351.65 404.528 352.297 404.488 352.666C404.382 353.66 405.342 350.295 405.536 349.805" stroke="#00ADB5" stroke-opacity="0.5" stroke-linecap="round" stroke-linejoin="round"/>
<path d="M420.332 344.082C421.991 346.261 423.819 347.815 425.112 350.206C425.239 350.441 425.46 350.628 425.636 350.811C426.224 351.423 424.544 349.505 423.999 348.851" stroke="#00ADB5" stroke-opacity="0.5" stroke-linecap="round" stroke-linejoin="round"/>
<path d="M310.495 217.051C311.532 221.123 315.536 236.26 316.493 241.791C319.13 257.019 314.993 236.24 314.982 242.966" stroke="#00ADB5" stroke-opacity="0.5" stroke-width="2" stroke-linecap="round" stroke-linejoin="round"/>
<path d="M303.467 223.634C303.114 217.438 301.778 208.838 310.128 209.723C314.057 210.14 318.384 212.566 320.833 215.812C324.618 220.828 322.621 228.604 318.532 232.596C316.355 234.72 314.244 235.785 311.395 236.588C306.57 237.949 310.378 230.976 311.155 229.064" stroke="#00ADB5" stroke-opacity="0.5" stroke-width="2" stroke-linecap="round" stroke-linejoin="round"/>
<path d="M325.187 231.207C333.484 230.745 341.121 229.046 344.089 238.408C345.814 243.849 347.914 250.46 346.476 256.194C345.177 261.375 342.379 264.614 337.262 262.407C329.95 259.253 329.96 253.315 333.94 247.393C335.405 245.213 341.017 240.847 341.021 238.298" stroke="#00ADB5" stroke-opacity="0.5" stroke-width="2" stroke-linecap="round" stroke-linejoin="round"/>
<path d="M340.141 221.104C339.858 223.375 339.854 239.444 335.674 239.598C334.89 239.627 334.232 240.051 333.548 240.406C330.916 241.769 332.517 240.542 333.499 239.123C335.724 235.909 340.231 237.097 342.488 232.831C344.938 228.199 346.067 225.921 342.554 222.338C340.092 219.826 341.173 215.555 339.235 221.573" stroke="#00ADB5" stroke-opacity="0.5" stroke-width="2" stroke-linecap="round" stroke-linejoin="round"/>
<path d="M352.387 206.522C355.593 214.033 358.524 223.815 363.668 230.354C365.028 232.082 365.791 230.578 365.77 229.232C365.744 227.532 365.283 225.816 364.809 224.206" stroke="#00ADB5" stroke-opacity="0.5" stroke-width="2" stroke-linecap="round" stroke-linejoin="round"/>
<path d="M343.076 226.055C348.164 223.972 360.657 221.864 362.786 215.253" stroke="#00ADB5" stroke-opacity="0.5" stroke-width="2" stroke-linecap="round" stroke-linejoin="round"/>
<path d="M358.724 206.768C380.776 246.902 359.292 218.694 370.5 211.353C377.304 206.898 377.872 227.897 379.757 218.814" stroke="#00ADB5" stroke-opacity="0.5" stroke-width="2" stroke-linecap="round" stroke-linejoin="round"/>
<path d="M378.419 205.387C379.219 207.876 381.906 224.307 387.501 220.554C390.002 218.875 392.916 215.675 393.398 212.529C393.916 209.154 391.889 200.579 387.303 201.502C385.211 201.924 381.711 202.025 380.345 204.095C379.025 206.095 378.193 210.779 379.777 205.86" stroke="#00ADB5" stroke-opacity="0.5" stroke-width="2" stroke-linecap="round" stroke-linejoin="round"/>
<path d="M394.044 201.409C400.298 197.231 407.648 195.86 408.6 205.698C408.719 206.933 408.741 208.488 409.285 209.625C409.916 210.943 408.62 206.403 407.392 205.67" stroke="#00ADB5" stroke-opacity="0.5" stroke-width="2" stroke-linecap="round" stroke-linejoin="round"/>
<path d="M393.585 205.176C393.868 210.319 393.162 217.286 395.471 222.111C395.55 222.275 396.099 223.534 395.822 222.844C395.275 221.479 395.048 220.553 394.017 219.073" stroke="#00ADB5" stroke-opacity="0.5" stroke-width="2" stroke-linecap="round" stroke-linejoin="round"/>
<path d="M235.306 251.734C234.44 260.093 235.951 285.829 222.305 284.227C219.46 283.894 216.876 283.399 215.525 280.61C214.11 277.69 212.939 275.149 212.799 271.832C212.625 267.758 214.184 265.835 217.35 263.996C218.461 263.352 216.075 265.962 215.863 266.215C214.472 267.878 219.193 265.851 220.998 265.435" stroke="#00ADB5" stroke-opacity="0.5" stroke-width="2" stroke-linecap="round" stroke-linejoin="round"/>
<path d="M252.824 255.75C245.922 256.422 236.181 257.784 235.067 266.767C234.463 271.64 241.426 272.232 244.449 273.892C249.641 276.743 253.581 286.043 247.757 290.136C243.706 292.982 240.643 291.47 236.703 291.754C232.7 292.042 235.487 290.507 237.86 290.086" stroke="#00ADB5" stroke-opacity="0.5" stroke-width="2" stroke-linecap="round" stroke-linejoin="round"/>
<path d="M290.223 34.5734C289.67 40.3406 289.333 46.1668 288.649 51.9204C288.584 52.4739 288.06 54.6592 288.679 52.8924C289.132 51.6006 288.986 50.2544 289.713 49.0294C290.715 47.3422 295.241 40.9151 297.367 41.5652C301.628 42.8682 297.327 51.0911 296.107 53.4474C295.687 54.2601 294.54 56.0228 295.134 56.9342C295.925 58.1491 297.389 53.6592 297.451 53.5219" stroke="#00ADB5" stroke-opacity="0.5" stroke-width="2" stroke-linecap="round" stroke-linejoin="round"/>
<path d="M307.05 38.3603C306.546 40.9369 302.304 53.655 306.391 55.7616C307.544 56.3561 310.095 55.2339 310.888 54.2665C311.714 53.2591 311.282 51.7166 311.193 50.5474" stroke="#00ADB5" stroke-opacity="0.5" stroke-width="2" stroke-linecap="round" stroke-linejoin="round"/>
<path d="M298.642 38.6382C303.126 40.0256 307.737 40.9493 312.192 42.3807C313.244 42.7186 313.638 42.8716 314.204 43.8477C315.085 45.366 312.746 43.9791 312.342 43.5192" stroke="#00ADB5" stroke-opacity="0.5" stroke-width="2" stroke-linecap="round" stroke-linejoin="round"/>
<path d="M318.919 47.6529C317.89 50.8857 316.923 54.1591 315.748 57.3404C315.515 57.9729 315.479 58.2042 315.354 57.7211C315.232 57.2557 315.114 56.9815 315.313 56.49C316.368 53.878 318.832 50.1241 321.155 48.6652C323.664 47.0897 322.295 52.3816 321.958 53.4529C321.58 54.656 320.56 57.9535 321.72 54.7627C322.409 52.8638 323.993 48.1445 326.663 48.8314C328.28 49.2474 327.906 51.5219 327.621 52.7246C327.094 54.9425 326.57 57.1455 326.041 59.3708C325.268 62.6225 325.686 60.8665 326.25 58.4903" stroke="#00ADB5" stroke-opacity="0.5" stroke-width="2" stroke-linecap="round" stroke-linejoin="round"/>
<path d="M338.851 40.5746C337.24 46.6027 335.264 52.6134 333.876 58.7042C333.713 59.4185 333.358 62.0634 334.451 62.3784C335.49 62.6777 339.592 60.1129 338.59 59.2238" stroke="#00ADB5" stroke-opacity="0.5" stroke-width="2" stroke-linecap="round" stroke-linejoin="round"/>
<path d="M59.9982 286.46C56.1892 293.989 52.3923 301.525 48.5729 309.048C47.4844 311.193 45.3357 317.753 45.0697 315.344C44.709 312.077 46.6274 307.504 47.4414 304.443C48.5902 300.122 50.9294 291.49 56.7583 291.522C61.1582 291.547 66.1047 298.26 66.787 302.448C67.2687 305.406 68.6697 302.066 70.5711 301.174" stroke="#00ADB5" stroke-opacity="0.5" stroke-width="2" stroke-linecap="round" stroke-linejoin="round"/>
<path d="M71.8051 310.581C74.3648 316.775 78.138 327.246 85.9082 321.485C89.4785 318.838 87.7043 314.308 84.1797 312.869C75.5421 309.343 64.6582 319.189 62.5041 327.282C60.3504 335.374 68.8523 337.855 74.7008 338.654C77.9369 339.096 77.2111 336.218 79.9957 335.216" stroke="#00ADB5" stroke-opacity="0.5" stroke-width="2" stroke-linecap="round" stroke-linejoin="round"/>
<path d="M93.3168 331.997C86.6069 329.082 77.7175 326.483 73.9362 335.405C72.1137 339.705 80.2705 340.21 82.6898 340.091C87.3107 339.865 97.6 328.735 94.1334 331.922C91.0914 334.719 88.0126 338.02 86.7617 342.15C85.9538 344.818 86.8817 350.711 89.8539 346.641" stroke="#00ADB5" stroke-opacity="0.5" stroke-width="2" stroke-linecap="round" stroke-linejoin="round"/>
<path d="M119.41 337.579C109.671 338.551 98.1292 339.06 94.6741 350.445C92.9756 356.041 96.9606 359.933 101.762 361.575C105.118 362.723 108.538 360.231 110.574 357.703" stroke="#00ADB5" stroke-opacity="0.5" stroke-width="2" stroke-linecap="round" stroke-linejoin="round"/>
<path d="M128.255 339.123C127.721 339.799 103.731 367.004 115.167 367.214C118.333 367.273 121.582 365.356 123.763 363.201" stroke="#00ADB5" stroke-opacity="0.5" stroke-width="2" stroke-linecap="round" stroke-linejoin="round"/>
<path d="M107.936 344.073C112.541 347.378 117.083 350.878 122.135 353.432C123.447 354.096 125.634 354.412 126.537 355.788C127.045 356.561 126.247 354.725 126.158 354.458" stroke="#00ADB5" stroke-opacity="0.5" stroke-width="2" stroke-linecap="round" stroke-linejoin="round"/>
<path d="M56.5584 126.255C60.4237 133.133 72.6988 153.199 67.7155 147.15C64.5303 143.283 62.1107 138.151 60.0911 133.576C57.9718 128.776 55.9818 120.211 64.058 120.645C70.9895 121.019 73.7567 128.384 74.9761 134.421C75.514 137.084 75.6512 139.153 76.7994 141.575C77.9734 144.052 78.0385 134.509 78.4847 132.033" stroke="#00ADB5" stroke-opacity="0.5" stroke-width="2" stroke-linecap="round" stroke-linejoin="round"/>
<path d="M81.5316 112.267C81.7472 113.307 85.0885 137.092 89.9381 132.518C91.98 130.592 92.4288 125.844 92.6909 123.243C93.5103 115.114 90.2099 114.11 84.7252 112.39C82.1085 111.569 81.5723 111.606 80.8538 114.409C79.3783 120.164 81.7041 118.547 84.6844 115.347" stroke="#00ADB5" stroke-opacity="0.5" stroke-width="2" stroke-linecap="round" stroke-linejoin="round"/>
<path d="M102.619 105.557C99.9241 110.282 96.4883 115.84 98.3838 121.627C99.17 124.028 100.999 123.393 102.28 122.042C104.301 119.909 105.355 116.404 105.243 113.475C105.027 107.861 101.647 103.057 98.1007 99.0675C97.609 98.5145 93.1298 94.6725 94.0069 97.9711C95.5824 103.896 99.9673 109.595 103.023 114.745C108.059 123.232 109.603 119.936 111.866 111.969" stroke="#00ADB5" stroke-opacity="0.5" stroke-width="2" stroke-linecap="round" stroke-linejoin="round"/>
<path d="M112.344 107.026C114.017 108.649 127.212 118.456 127.622 109.757C127.659 108.968 126.692 108.721 126.373 108.049C125.552 106.316 124.191 105.172 123.451 104.263" stroke="#00ADB5" stroke-opacity="0.5" stroke-width="2" stroke-linecap="round" stroke-linejoin="round"/>
<path d="M113.445 112.921C108.22 105.782 100.922 98.3596 108.403 91.302C111.556 88.3283 118.096 90.6798 117.925 95.6483C117.846 97.9625 117.376 103.685 114.182 104.289C112.493 104.608 111.715 103.458 113.277 101.85" stroke="#00ADB5" stroke-opacity="0.5" stroke-width="2" stroke-linecap="round" stroke-linejoin="round"/>
<path d="M125.372 83.3129C128.75 85.5493 152.821 100.35 140.213 106.819C138.248 107.828 136.519 105.478 135.474 103.966C133.12 100.558 139.979 95.7227 140.266 92.1126" stroke="#00ADB5" stroke-opacity="0.5" stroke-width="2" stroke-linecap="round" stroke-linejoin="round"/>
<path d="M145.129 71.4142C143.163 73.0849 131.885 83.4619 140.754 85.4682C145.652 86.5765 150.282 81.4976 154.005 78.9626C160.002 74.8786 161.268 82.7372 159.62 87.1727C158.611 89.8891 150.186 98.7785 152.491 91.7114" stroke="#00ADB5" stroke-opacity="0.5" stroke-width="2" stroke-linecap="round" stroke-linejoin="round"/>
<path d="M211.691 457.65C204.188 461.578 194.357 468.742 202.468 478.247C206.359 482.807 213.541 480.939 218.665 480.412C220.104 480.264 224.076 481.705 222.995 480.705C220.656 478.542 218.973 478.681 218.271 475.029" stroke="#00ADB5" stroke-opacity="0.5" stroke-width="2" stroke-linecap="round" stroke-linejoin="round"/>
<path d="M233.961 455.016C233.961 460.771 233.91 464.891 239.585 467.129C242.036 468.096 243.575 468.983 244.225 471.84C244.96 475.069 242.795 479.747 240.232 481.553C237.064 483.786 233.083 484.565 229.519 483.045C226.466 481.743 229.84 480.204 231.431 478.715" stroke="#00ADB5" stroke-opacity="0.5" stroke-width="2" stroke-linecap="round" stroke-linejoin="round"/>
<path d="M258.762 448.697C257.767 452.71 253.279 463.443 257.272 467.597C258.883 469.274 262.005 468.343 263.992 468.826C265.97 469.307 267.667 470.882 268.885 472.513C270.815 475.094 268.978 479.006 266.748 480.822C263.289 483.639 258.347 482.402 254.319 482.402C252.121 482.402 253.623 482.24 254.713 480.822" stroke="#00ADB5" stroke-opacity="0.5" stroke-width="2" stroke-linecap="round" stroke-linejoin="round"/>
<path d="M250.037 398.752C253.936 397.204 261.169 394.74 264.94 391.964C268.921 389.034 264.753 388.192 262.634 388.892C259.045 390.079 256.877 393.99 255.661 397.436C252.458 406.507 262.646 416.761 271.211 415.722C279.126 414.761 280.229 410.729 281.418 404.545" stroke="#00ADB5" stroke-opacity="0.5" stroke-width="2" stroke-linecap="round" stroke-linejoin="round"/>
<path d="M286.479 394.012C285.593 395.515 277.169 413.561 274.838 405.072" stroke="#00ADB5" stroke-opacity="0.5" stroke-width="2" stroke-linecap="round" stroke-linejoin="round"/>
<path d="M270.789 394.539C274.343 399.482 282.929 417.156 291.541 416.658C292.79 416.586 291.133 411.583 291.035 410.865" stroke="#00ADB5" stroke-opacity="0.5" stroke-width="2" stroke-linecap="round" stroke-linejoin="round"/>
<path d="M294.072 394.539C296.035 406.506 299.968 442.674 297.727 430.76C296.572 424.617 286.023 391.374 295.309 392.754C299.336 393.353 309.616 399.466 306.922 405.072C305.408 408.224 296.02 409.324 300.145 407.178" stroke="#00ADB5" stroke-opacity="0.5" stroke-width="2" stroke-linecap="round" stroke-linejoin="round"/>
<path d="M313.306 402.965C314.556 409.736 315.76 416.502 316.849 423.299C317.035 424.463 316.785 423.504 316.455 422.861C314.384 418.821 311.55 411.623 311.646 407.091C311.738 402.797 317.416 399.869 320.392 402.965" stroke="#00ADB5" stroke-opacity="0.5" stroke-width="2" stroke-linecap="round" stroke-linejoin="round"/>
<path d="M329.502 410.865C329.371 415.821 332.827 433.172 341.031 428.127C342.207 427.404 345.107 425.638 345.193 424.031C345.239 423.174 343.74 422.978 343.168 422.978C341.664 422.978 341.288 421.037 340.638 419.818" stroke="#00ADB5" stroke-opacity="0.5" stroke-width="2" stroke-linecap="round" stroke-linejoin="round"/>
<path d="M326.971 412.445C331.405 407.673 336.391 401.099 340.328 409.607C341.481 412.098 341.079 415.099 340.131 417.594C338.6 421.625 333.115 423.215 334.564 417.185" stroke="#00ADB5" stroke-opacity="0.5" stroke-width="2" stroke-linecap="round" stroke-linejoin="round"/>
<path d="M354.303 402.965C357.773 408.733 371.802 424.281 362.599 431.375C359.654 433.644 357.732 433.634 354.416 433.51C349.735 433.336 352.208 432.102 353.797 428.244" stroke="#00ADB5" stroke-opacity="0.5" stroke-width="2" stroke-linecap="round" stroke-linejoin="round"/>
<path d="M375.561 400.859C374.514 402.178 360.98 415.792 369.207 417.243C372.239 417.778 375.026 415.867 377.811 417.799C382.836 421.285 381.646 426.01 377.024 428.975C374.714 430.458 372.136 431.235 369.713 432.457C368.343 433.148 369.803 431.147 369.994 430.351" stroke="#00ADB5" stroke-opacity="0.5" stroke-width="2" stroke-linecap="round" stroke-linejoin="round"/>
<path d="M363.92 395.066C362.745 395.964 350.091 403.271 351.885 407.705C354.149 413.299 354.897 406.413 355.316 404.019" stroke="#00ADB5" stroke-opacity="0.5" stroke-width="2" stroke-linecap="round" stroke-linejoin="round"/>
<path d="M52.8321 222.793C55.0863 217.263 54.1631 212.444 54.1631 206.712C54.1631 205.597 53.9686 202.201 55.0948 201.593C56.8707 200.634 58.5304 199.994 60.6258 199.994C62.0189 199.994 63.4185 200.036 64.811 199.994C66.2037 199.953 67.5527 199.363 68.9297 199.188C71.4917 198.861 74.1564 199.316 76.6864 199.316C78.6952 199.316 80.7732 199.587 82.7054 199.587C83.0485 199.587 84.447 199.757 84.6723 199.964C85.362 200.597 85.1645 201.612 85.7076 202.166" stroke="#00ADB5" stroke-opacity="0.5" stroke-linecap="round" stroke-linejoin="round"/>
<path d="M85.575 202.656C85.6627 204.288 85.6956 206.578 86.341 208.173C86.7592 209.206 86.4257 210.582 86.5103 211.682C86.6728 213.795 86.3704 215.855 86.3704 217.905C86.3704 220.654 86.503 223.369 86.503 226.104C86.503 228.451 84.2987 228.058 82.5556 227.728C81.0497 227.443 79.0288 228.015 77.4593 228.035C74.4314 228.074 71.3893 228.311 68.3567 228.311C65.8239 228.311 63.9431 227.545 61.6107 226.625C60.3652 226.133 59.6124 226.242 58.2746 226.242C57.0075 226.242 55.9655 226.036 54.6954 226.449C53.9523 226.69 52.6215 226.482 52.1988 225.69C51.6919 224.741 52.6996 224.329 52.6996 223.552C52.6996 222.9 52.6208 221.034 52.8321 222.793" stroke="#00ADB5" stroke-opacity="0.5" stroke-linecap="round" stroke-linejoin="round"/>
<path d="M67.9443 206.242C67.9443 206.242 68.4746 206.518 69.0048 207.07C69.5351 207.483 70.6512 207.276 71.5898 207.276C72.0836 207.276 72.6051 206.876 73.048 206.671C73.945 206.256 73.41 207.037 73.1953 207.483C72.9576 207.978 73.229 208.898 73.6592 209.207C74.369 209.719 75.0713 209.277 75.7655 208.916C76.0537 208.766 75.9746 208.697 76.0638 208.901C76.1847 209.178 76.1632 209.58 76.1632 209.882C76.1632 210.569 76.1198 211.712 75.7655 212.311C75.2994 213.099 74.8285 213.609 74.079 214.188C73.3386 214.761 72.3604 215.759 71.3762 215.759C69.453 215.759 67.4117 215.323 66.4493 213.376C66.0414 212.551 65.2931 211.875 65.2931 210.932C65.2931 210.144 65.0427 209.201 65.2931 208.449C65.5965 207.537 66.3536 206.671 66.0884 206.671C66.2236 206.711 67.4141 205.966 67.9443 206.242Z" stroke="#00ADB5" stroke-opacity="0.5" stroke-linecap="round" stroke-linejoin="round"/>
<path d="M70.1316 205.759C70.8774 205.472 72.5808 204.87 72.9817 203.932C73.2916 203.206 72.2674 203.07 71.7224 203.07C71.0613 203.07 70.278 204.02 70.1022 204.621C70.0044 204.956 69.9115 205.298 69.815 205.637C69.7684 205.8 69.8305 205.918 69.8628 206.07C69.8874 206.185 70.8987 205.632 70.8607 205.474" stroke="#00ADB5" stroke-opacity="0.5" stroke-linecap="round" stroke-linejoin="round"/>
<path d="M83.2823 221.279L54.3997 221.939C51.1699 222.012 48.5901 224.652 48.5901 227.882C48.5901 231.166 51.252 233.828 54.5355 233.828H83.4194C86.7331 233.828 89.4194 231.142 89.4194 227.828V227.277C89.4194 223.91 86.6488 221.202 83.2823 221.279Z" stroke="#00ADB5" stroke-opacity="0.5"/>
<path d="M60.6051 221.777C61.0454 222.487 61.4255 223.34 61.9307 223.997C62.1848 224.327 62.144 224.26 62.6366 224.07C63.4588 223.753 64.3905 223.98 65.2484 223.98C66.0015 223.98 66.8772 223.571 67.6092 223.776C68.4573 224.014 69.457 223.56 70.2917 223.54C71.2974 223.515 72.2562 223.613 73.2564 223.613C73.8595 223.613 74.4474 223.246 75.0055 223.246C75.3293 223.246 76.2524 223.513 76.2761 222.895C76.2877 222.594 76.4173 222.302 76.4173 221.997C76.4173 221.586 76.1806 221.764 75.782 221.557" stroke="#00ADB5" stroke-opacity="0.5" stroke-linecap="round" stroke-linejoin="round"/>
<path d="M204.212 71.0062C204.756 70.2862 205.799 68.9538 204.338 68.7182C204.007 68.6649 203.698 68.4628 203.374 68.6157C202.375 69.0869 201.447 70.1242 201.447 71.3575C201.447 73.3273 203.523 73.7539 205.031 73.7284C207.576 73.6854 208.35 71.1055 209.249 69.0158C210.157 66.9048 211.166 64.8281 212.108 62.7323C213.174 60.3608 214.922 58.4716 216.028 56.1219C216.502 55.1143 217.121 54.227 217.732 53.307C218.679 51.8799 219.354 50.4401 220.031 48.8578C220.587 47.5595 221.203 46.374 221.884 45.1452C222.16 44.6483 222.056 43.8871 222.583 44.4183C222.982 44.8217 223.618 45.0867 224.156 45.1891C226.508 45.6372 228.671 46.1115 231.093 45.9112C233.542 45.7085 235.991 45.3433 238.402 44.8574C239.222 44.6922 238.872 44.8911 238.486 45.4087C237.83 46.2866 237.27 47.217 236.642 48.1065C235.823 49.2665 235.535 50.6636 235.05 51.9898C234.517 53.4476 233.883 54.8401 233.374 56.3219C232.39 59.1856 230.955 61.7972 229.179 64.2007C228.15 65.5936 226.879 68.0264 224.952 67.9279C221.97 67.7754 223.984 61.6678 225.409 60.4735C226.175 59.8306 227.014 60.5227 227.108 61.3858C227.236 62.5716 226.845 64.1967 225.739 64.7764C224.572 65.3879 223.677 65.3146 224.575 63.7372C225.119 62.7829 225.442 63.8332 225.665 63.3665" stroke="#00ADB5" stroke-opacity="0.5" stroke-width="2" stroke-linecap="round" stroke-linejoin="round"/>
<path d="M428.942 283.769C429.486 283.048 430.529 281.716 429.067 281.481C428.737 281.427 428.428 281.225 428.104 281.378C427.105 281.849 426.176 282.887 426.176 284.12C426.176 286.09 428.253 286.516 429.761 286.491C432.306 286.448 433.08 283.868 433.979 281.778C434.887 279.667 435.895 277.59 436.837 275.495C437.903 273.123 439.652 271.234 440.757 268.884C441.232 267.877 441.851 266.989 442.461 266.069C443.408 264.642 444.084 263.202 444.761 261.62C445.317 260.322 445.933 259.136 446.614 257.908C446.889 257.411 446.786 256.649 447.312 257.181C447.712 257.584 448.348 257.849 448.886 257.951C451.238 258.4 453.401 258.874 455.823 258.673C458.272 258.471 460.72 258.106 463.132 257.62C463.951 257.455 463.602 257.653 463.216 258.171C462.56 259.049 462 259.979 461.372 260.869C460.553 262.029 460.264 263.426 459.78 264.752C459.247 266.21 458.613 267.602 458.104 269.084C457.12 271.948 455.685 274.56 453.909 276.963C452.88 278.356 451.609 280.789 449.682 280.69C446.7 280.538 448.714 274.43 450.138 273.236C450.905 272.593 451.744 273.285 451.838 274.148C451.966 275.334 451.575 276.959 450.469 277.539C449.302 278.15 448.407 278.077 449.305 276.5C449.848 275.545 450.172 276.596 450.394 276.129" stroke="#00ADB5" stroke-opacity="0.5" stroke-width="2" stroke-linecap="round" stroke-linejoin="round"/>
<path d="M404.913 159.664C402.418 154.959 402.565 153.615 403.134 148.879C403.447 146.272 403.567 143.723 404.201 141.158C405.335 136.57 405.703 130.391 402.153 126.697C395.166 119.428 382.156 129.766 386.096 138.988C387.595 142.498 390.186 145.097 392.057 148.407C392.808 149.735 393.228 151.174 394.204 152.415C395.139 153.605 396.301 155.085 396.301 156.563C396.301 157.811 395.944 159.429 396.792 160.532C397.964 162.056 397.547 161.272 399.282 161.272C400.475 161.272 402.233 160.286 403.195 159.486C403.882 158.914 404.25 160.567 404.25 158.975C404.25 157.608 403.827 158.745 404.692 158.745" stroke="#00ADB5" stroke-opacity="0.5" stroke-linecap="round" stroke-linejoin="round"/>
<path d="M399.392 164.029C401.754 163.297 408.29 161.661 406.777 163.685C404.952 166.126 404.171 164.903 401.932 165.421C400.786 165.685 399.67 169.363 400.938 169.441C402.749 169.552 403.951 167.016 405.795 167.016C407.475 167.016 407.354 169.315 406.347 170.13C405.018 171.206 403.489 170.05 402.594 171.726C401.18 174.374 405.043 173.943 406.139 173.321C407.243 172.694 408.294 171.715 409.107 171.151" stroke="#00ADB5" stroke-opacity="0.5" stroke-linecap="round" stroke-linejoin="round"/>
<path d="M404.913 158.918C404.883 159.118 404.851 160.468 404.333 160.468C404.054 160.468 403.926 160.292 403.671 160.44C403.371 160.613 403.09 161.021 402.803 161.26C402.55 161.47 401.8 161.444 401.656 161.706C401.42 162.135 400.943 162.37 400.497 162.421C399.918 162.488 399.705 162.79 399.089 162.648C398.901 162.604 398.882 162.479 398.706 162.479C398.434 162.479 398.316 162.614 398.111 162.377C397.883 162.114 397.512 161.991 397.402 161.592C397.253 161.049 396.707 160.764 397.516 161.1" stroke="#00ADB5" stroke-opacity="0.5" stroke-linecap="round" stroke-linejoin="round"/>
<path d="M394.259 136.174C395.247 136.179 396.063 136.246 396.4 137.335C396.629 138.077 396.633 138.805 396.633 139.575C396.633 140.324 396.191 140.926 396.191 141.63C396.191 142.561 396.907 142.409 397.513 142.693C398.085 142.961 398.5 143.184 398.81 143.784C399.117 144.377 398.885 145.525 398.844 146.171C398.808 146.726 398.554 147.906 398.923 148.375C399.124 148.63 400.22 149.024 399.503 148.465" stroke="#00ADB5" stroke-opacity="0.5" stroke-linecap="round" stroke-linejoin="round"/>
<path d="M385.924 146.569C385.133 147.116 384.327 147.574 383.443 147.919C383.072 148.064 382.584 148.322 382.667 147.718" stroke="#00ADB5" stroke-opacity="0.5" stroke-linecap="round" stroke-linejoin="round"/>
<path d="M383.054 138.643C381.652 138.994 380.26 139.39 378.871 139.779C378.64 139.844 379.17 139.236 379.19 139.218" stroke="#00ADB5" stroke-opacity="0.5" stroke-linecap="round" stroke-linejoin="round"/>
<path d="M382.667 131.12C381.216 130.9 379.769 130.628 378.325 130.36C377.66 130.237 377.379 130.328 377.754 129.741" stroke="#00ADB5" stroke-opacity="0.5" stroke-linecap="round" stroke-linejoin="round"/>
<path d="M390.505 123.136C389.359 122.927 388.365 122.725 387.328 122.185C386.843 121.933 386.376 121.63 385.869 121.426C385.266 121.184 385.253 121.258 385.924 120.839" stroke="#00ADB5" stroke-opacity="0.5" stroke-linecap="round" stroke-linejoin="round"/>
<path d="M400.497 117.967C400.664 119.186 400.609 119.916 400.135 121.021C399.88 121.616 399.663 122.369 399.537 123.012C399.494 123.233 399.469 123.359 399.325 123.526C399.272 123.588 399.469 122.848 399.503 122.734" stroke="#00ADB5" stroke-opacity="0.5" stroke-linecap="round" stroke-linejoin="round"/>
<path d="M408.942 122.849C408.576 124.118 408.053 125.336 407.74 126.608C407.581 127.251 407.681 127.29 407.949 126.64" stroke="#00ADB5" stroke-opacity="0.5" stroke-linecap="round" stroke-linejoin="round"/>
<path d="M412.475 131.981C411.221 133.11 410.192 134.512 409.218 135.899C409.096 136.073 408.955 136.135 408.819 136.276C408.512 136.596 409.043 135.873 409.108 135.772" stroke="#00ADB5" stroke-opacity="0.5" stroke-linecap="round" stroke-linejoin="round"/>
<path d="M131.414 247.189C133.249 255.791 135.316 264.412 136.529 273.144C137.208 278.022 135.719 270.983 135.533 269.988C135.133 267.834 134.673 265.926 134.673 263.723C134.673 259.29 134.559 254.807 134.243 250.369C134.022 247.262 130.354 238.011 134.99 245.729C139.717 253.598 143.055 262.299 146.263 270.883C146.705 272.066 147.318 273.187 147.802 274.322C148.067 274.942 143.105 269.896 141.193 268.811" stroke="#00ADB5" stroke-opacity="0.5" stroke-width="2" stroke-linecap="round" stroke-linejoin="round"/>
<path d="M128.561 266.267C133.859 264.067 145.539 259.919 148.934 253.737C150.356 251.147 150.079 252.344 146.082 253.124" stroke="#00ADB5" stroke-opacity="0.5" stroke-width="2" stroke-linecap="round" stroke-linejoin="round"/>
<path d="M144.452 237.438C148.54 245.858 151.501 254.824 152.624 264.171C152.728 265.037 152.921 265.987 153.507 266.597C153.616 266.71 151.546 262.679 150.972 261.603" stroke="#00ADB5" stroke-opacity="0.5" stroke-width="2" stroke-linecap="round" stroke-linejoin="round"/>
<path d="M144.452 237.014C147.622 238.99 159.265 246.287 151.673 250.934C151.007 251.342 150.226 251.718 149.749 252.371C148.74 253.752 148.619 254.157 149.342 252.276" stroke="#00ADB5" stroke-opacity="0.5" stroke-width="2" stroke-linecap="round" stroke-linejoin="round"/>
<path d="M155.046 232.775C156.396 242.293 158.713 252.752 158.713 262.451C158.713 264.592 158.369 260.627 157.898 259.484" stroke="#00ADB5" stroke-opacity="0.5" stroke-width="2" stroke-linecap="round" stroke-linejoin="round"/>
<path d="M164.417 249.733C166.654 256.671 167.805 260.76 161.248 262.781C159.008 263.472 161.715 260.086 162.29 259.672C164.251 258.259 166.204 253.711 164.01 251.428C163.137 250.52 161.048 251.667 160.433 250.581C159.528 248.979 161.558 245.945 162.788 245.163C166.325 242.914 165.88 246.084 164.417 245.069" stroke="#00ADB5" stroke-opacity="0.5" stroke-width="2" stroke-linecap="round" stroke-linejoin="round"/>
<path d="M286.814 120.985C288.164 128.379 293.725 149.97 290.49 143.238C290.141 142.513 289.851 141.898 289.821 141.075C289.713 138.03 289.494 134.847 288.484 131.957C287.64 129.54 287.816 127.034 287.816 124.462C287.816 123.947 286.975 119.892 287.055 119.865C287.905 119.57 291.415 124.006 292.049 124.771C295.257 128.639 298.501 133.084 300.793 137.617C301.974 139.95 302.329 140.786 299.512 141.152" stroke="#00ADB5" stroke-opacity="0.5" stroke-width="2" stroke-linecap="round" stroke-linejoin="round"/>
<path d="M286.48 135.936C289.615 134.281 292.603 132.958 295.837 131.764" stroke="#00ADB5" stroke-opacity="0.5" stroke-width="2" stroke-linecap="round" stroke-linejoin="round"/>
<path d="M295.503 121.333C298.714 126.337 301.772 131.663 305.509 136.284C306.042 136.943 307.162 138.14 307.162 136.593C307.162 134.482 306.038 132.3 305.528 130.296C304.712 127.09 303.953 123.869 303.263 120.637C302.597 117.517 303.066 118.682 304.191 121.024C306.056 124.903 308.018 128.437 310.615 131.88C312.364 134.199 312.546 132.907 312.546 130.875C312.546 127.184 310.814 124.148 309.538 120.83C308.176 117.286 308.267 112.448 306.716 109.221C306.113 107.966 306.029 111.943 305.862 113.335" stroke="#00ADB5" stroke-opacity="0.5" stroke-width="2" stroke-linecap="round" stroke-linejoin="round"/>
<path d="M313.548 108.815C313.633 109.223 314.878 119.347 317.076 118.203C318.039 117.702 318.275 116.169 319.266 115.653C320.873 114.817 322.61 116.298 323.239 117.74C324.905 121.552 322.988 125.967 319.972 128.287C315.794 131.5 317.224 125.716 317.224 124.114" stroke="#00ADB5" stroke-opacity="0.5" stroke-width="2" stroke-linecap="round" stroke-linejoin="round"/>
<path d="M315.553 108.12C314.952 109.83 313.859 117.768 313.53 114.688C313.327 112.786 313.687 111.34 313.882 109.51C314.346 105.171 317.537 108.662 316.222 106.381" stroke="#00ADB5" stroke-opacity="0.5" stroke-width="2" stroke-linecap="round" stroke-linejoin="round"/>
<path d="M293.267 336.508C293.155 336.295 288.334 327.656 288.752 327.408C289.33 327.064 290.41 327.399 291.091 327.133C293.103 326.348 294.723 324.728 296.379 323.388C298.12 321.978 300.506 333.036 301.036 335.365C301.677 338.183 303.348 341.929 300.223 343.555C297.405 345.02 293.699 344.578 290.623 344.507C285.605 344.391 282.137 335.821 281.552 331.556C281.126 328.451 276.992 318.483 281.43 316.489C282.618 315.955 284.636 316.32 285.925 316.32C287.769 316.32 289.378 315.177 291.253 315.177C294.237 315.177 295.139 319.055 292.535 314.796" stroke="#00ADB5" stroke-opacity="0.5" stroke-width="2" stroke-linecap="round" stroke-linejoin="round"/>
<path d="M301.687 317.843C302.207 319.815 303.88 330.762 308.276 327.959C309.113 327.425 309.722 326.131 310.026 325.207C310.835 322.742 311.006 320.683 309.192 318.795C307.832 317.381 305.207 314.494 303.233 314.415C298.335 314.219 302.656 319.927 302.053 318.986" stroke="#00ADB5" stroke-opacity="0.5" stroke-width="2" stroke-linecap="round" stroke-linejoin="round"/>
<path d="M302.419 300.321C306.035 306.27 311.491 312.812 313.686 319.663C313.966 320.537 313.976 321.131 314.5 321.949C315.29 323.182 315.664 324.972 316.412 323.091C317.495 320.368 319.963 317.951 321.903 315.854C324.297 313.268 324.624 314.034 320.357 314.034" stroke="#00ADB5" stroke-opacity="0.5" stroke-width="2" stroke-linecap="round" stroke-linejoin="round"/>
<path d="M327.679 298.417C327.225 299.484 320.328 313.685 326.988 310.458C328.313 309.816 329.664 308.817 329.489 307.178C329.321 305.597 328.052 304.356 327.395 302.988C327.023 302.214 325.538 298.489 326.052 299.559C327.581 302.741 329.635 308.408 331.91 310.775C334.56 313.532 336.148 310.635 333.537 309.082" stroke="#00ADB5" stroke-opacity="0.5" stroke-width="2" stroke-linecap="round" stroke-linejoin="round"/>
<path d="M331.706 299.94C341.896 316.758 329.002 297.888 331.971 294.586C334.843 291.391 338.238 297.527 339.313 299.475C341.186 302.868 343.03 311.671 340.126 302.607" stroke="#00ADB5" stroke-opacity="0.5" stroke-width="2" stroke-linecap="round" stroke-linejoin="round"/>
<path d="M344.52 285.466C344.347 286.101 338.881 302.105 342.974 300.618C344.713 299.986 346.46 298.555 347.387 296.914C348.458 295.02 348.957 292.423 348.18 290.333C347.651 288.908 347.079 287.386 346.35 286.058C344.617 282.903 349.287 292.652 350.682 295.983C352.725 300.86 357.648 317.959 346.045 314.563C340.984 313.082 345.75 304.892 345.252 304.892" stroke="#00ADB5" stroke-opacity="0.5" stroke-width="2" stroke-linecap="round" stroke-linejoin="round"/>
<path d="M200.434 206.765C202.253 206.245 203.805 205.721 205.084 204.223C205.588 203.633 205.657 202.879 205.914 202.164C206.249 201.235 205.832 200.046 205.547 199.154C205.318 198.441 206.567 198.041 207.013 198.011C207.779 197.96 208.365 198.467 209.102 198.512C209.987 198.566 210.931 198.861 211.544 199.58C211.961 200.067 212.519 200.182 212.979 200.605C213.416 201.006 213.762 201.706 214.078 202.22C214.993 203.707 215.251 205.442 215.517 207.143C215.645 207.959 215.722 208.846 215.59 209.67C215.432 210.654 215.6 211.6 215.227 212.543C214.969 213.194 214.556 214.057 213.969 214.442C213.366 214.837 212.806 214.979 212.652 215.798C212.331 217.508 213.156 219.183 212.838 220.909C212.556 222.442 210.609 222.676 209.406 222.922C208.575 223.091 207.065 223.356 206.264 222.903C204.773 222.059 203.693 221.005 202.586 219.662C201.606 218.472 201.236 216.733 201.106 215.212C200.974 213.659 200.973 211.973 201.006 210.403C201.029 209.361 201.32 208.314 201.415 207.275C201.493 206.425 201.752 206.357 201.333 207.445" stroke="#00ADB5" stroke-opacity="0.5" stroke-linecap="round" stroke-linejoin="round"/>
<path d="M210.977 199.027C211.592 197.378 212.268 195.73 212.739 194.029C212.95 193.265 213.001 192.455 213.265 191.709C213.572 190.842 213.724 189.862 213.856 188.955C213.95 188.305 213.996 187.154 214.568 186.744C214.986 186.445 215.224 185.762 215.672 185.403C216.246 184.941 217.063 184.512 217.47 183.896C217.87 183.29 218.296 182.04 217.96 181.34C217.773 180.951 217.799 180.532 217.615 180.149C217.376 179.651 217.161 179.247 216.979 178.708C216.821 178.237 216.322 177.296 216.902 176.961C218.321 176.141 218.419 177.431 218.859 178.609C219.086 179.218 219.121 179.961 219.331 180.593C219.475 181.026 219.731 180.713 219.926 180.962C220.22 181.336 220.235 181.804 220.457 182.209C220.79 182.815 220.399 184.044 220.23 184.637C219.917 185.735 219.595 186.729 219.131 187.784C217.937 190.499 215.99 192.786 214.655 195.418C214.147 196.419 213.74 197.428 213.492 198.536C213.352 199.166 212.938 199.765 212.938 200.43C212.938 201.037 212.794 201.348 213.102 200.388" stroke="#00ADB5" stroke-opacity="0.5" stroke-linecap="round" stroke-linejoin="round"/>
<path d="M217.352 178.534C216.311 178.7 215.176 178.763 214.246 179.247C214.118 179.313 214.317 179.14 214.409 179.129C215.655 178.976 217.016 177.82 218.151 177.258C218.995 176.84 220.149 175.898 221.111 175.898C221.39 175.898 220.185 176.705 220.049 176.833" stroke="#00ADB5" stroke-opacity="0.5" stroke-linecap="round" stroke-linejoin="round"/>
<path d="M216.289 180.404C217.447 179.704 219.464 178.944 220.312 177.768C220.394 177.654 220.455 177.5 220.575 177.428C220.996 177.178 220.252 177.457 220.13 177.513" stroke="#00ADB5" stroke-opacity="0.5" stroke-linecap="round" stroke-linejoin="round"/>
<path d="M217.106 181.51C218.496 180.956 221.037 180.464 221.801 178.874C221.911 178.644 221.666 178.704 221.519 178.704" stroke="#00ADB5" stroke-opacity="0.5" stroke-linecap="round" stroke-linejoin="round"/>
<path d="M218.577 181.34C218.489 183.29 218.508 185.273 217.438 186.943C216.916 187.757 216.554 188.299 216.371 189.253C216.175 190.272 215.96 191.123 215.513 192.054C215.071 192.973 214.554 193.724 214.119 194.605C213.893 195.062 213.338 195.503 213.447 196.051C213.502 196.328 213.369 196.577 213.283 196.835C213.028 197.603 212.551 198.279 212.103 198.942C211.799 199.392 211.803 200.2 212.203 199.367" stroke="#00ADB5" stroke-opacity="0.5" stroke-linecap="round" stroke-linejoin="round"/>
<path d="M211.958 197.071C212.695 197.238 213.817 197.751 214.573 197.751C214.587 197.751 213.93 196.927 213.837 196.816" stroke="#00ADB5" stroke-opacity="0.5" stroke-linecap="round" stroke-linejoin="round"/>
<path d="M212.448 193.585C213.491 194.048 214.536 194.507 215.572 194.988C215.814 195.1 215.8 195.117 215.717 195.03C215.537 194.843 215.385 194.641 215.227 194.435" stroke="#00ADB5" stroke-opacity="0.5" stroke-linecap="round" stroke-linejoin="round"/>
<path d="M213.429 191.289C214.685 191.695 215.94 192.133 217.211 192.489C217.353 192.529 217.552 192.608 217.415 192.46C217.141 192.166 216.826 191.905 216.534 191.629" stroke="#00ADB5" stroke-opacity="0.5" stroke-linecap="round" stroke-linejoin="round"/>
<path d="M214.083 188.398C215.513 189.125 216.937 189.909 218.405 190.557C218.646 190.663 218.727 190.741 218.677 190.542C218.61 190.273 218.51 190.018 218.414 189.758" stroke="#00ADB5" stroke-opacity="0.5" stroke-linecap="round" stroke-linejoin="round"/>
<path d="M215.88 186.357C216.01 186.422 219.967 188.655 219.64 187.802" stroke="#00ADB5" stroke-opacity="0.5" stroke-linecap="round" stroke-linejoin="round"/>
<path d="M216.698 184.996C217.892 185.288 219.099 185.554 220.293 185.762" stroke="#00ADB5" stroke-opacity="0.5" stroke-linecap="round" stroke-linejoin="round"/>
<path d="M218.005 183.636C218.55 183.663 219.095 183.691 219.64 183.721" stroke="#00ADB5" stroke-opacity="0.5" stroke-linecap="round" stroke-linejoin="round"/>
<path d="M207.218 209.146C206.65 209.381 203.152 210.286 203.131 211.291C203.123 211.683 203.131 212.077 203.177 212.467C203.317 213.678 204.127 214.312 205.12 214.891C206.382 215.626 207.74 215.649 209.115 215.231C210.423 214.833 211.273 213.329 210.75 212.037C210.642 211.769 211.017 211.715 210.773 211.404C210.535 211.102 210.379 211.277 209.996 211.357" stroke="#00ADB5" stroke-opacity="0.5" stroke-linecap="round" stroke-linejoin="round"/>
<path d="M205.501 212.292C206.152 210.58 206.963 208.87 207.34 207.063C207.439 206.589 207.561 206.191 207.808 205.764C208.329 204.86 208.788 203.895 209.097 202.891C209.391 201.938 209.41 200.998 209.797 200.066C209.935 199.734 210.759 198.737 210.405 199.197" stroke="#00ADB5" stroke-opacity="0.5" stroke-linecap="round" stroke-linejoin="round"/>
<path d="M211.958 200.047C211.654 202.017 211.199 203.902 210.877 205.849C210.699 206.928 210.405 207.83 210.405 208.967C210.405 209.779 210.684 210.457 210.505 211.272C210.299 212.211 210.113 211.748 209.751 211.102" stroke="#00ADB5" stroke-opacity="0.5" stroke-linecap="round" stroke-linejoin="round"/>
<path d="M211.14 200.047C210.572 201.277 209.342 203.299 209.342 204.852C209.342 205.735 209.397 206.672 209.338 207.568C209.267 208.634 208.468 210.015 207.989 210.932C207.831 211.236 207.624 211.471 207.526 211.801C207.404 212.213 207.491 212.238 207.218 211.782" stroke="#00ADB5" stroke-opacity="0.5" stroke-linecap="round" stroke-linejoin="round"/>
<path d="M205.256 210.507C206.648 211.543 209.105 213.657 210.814 211.829C211.08 211.544 211.465 210.936 211.613 210.573C211.815 210.076 211.161 210.498 210.732 210.592" stroke="#00ADB5" stroke-opacity="0.5" stroke-linecap="round" stroke-linejoin="round"/>
<path d="M206.891 208.976C207.684 208.95 209.289 209.173 210.06 208.759C210.085 208.745 210.001 208.768 209.978 208.787C209.902 208.85 209.744 208.747 209.669 208.721" stroke="#00ADB5" stroke-opacity="0.5" stroke-linecap="round" stroke-linejoin="round"/>
<path d="M207.789 205.83C208.372 205.99 210.48 206.924 210.568 205.915" stroke="#00ADB5" stroke-opacity="0.5" stroke-linecap="round" stroke-linejoin="round"/>
<path d="M208.77 203.279C209.492 203.769 212.423 206.04 211.958 203.619" stroke="#00ADB5" stroke-opacity="0.5" stroke-linecap="round" stroke-linejoin="round"/>
<path d="M209.588 202.088C210.323 202.287 211.059 202.485 211.794 202.683" stroke="#00ADB5" stroke-opacity="0.5" stroke-linecap="round" stroke-linejoin="round"/>
<path d="M213.184 202.088C214.093 202.98 215.909 205.054 215.962 206.614C216.006 207.886 215.962 209.116 215.962 210.403C215.962 211.339 216.134 212.338 216.044 213.228C215.926 214.396 214.201 214.411 214.614 215.784C214.751 216.242 214.632 216.513 215.018 216.842C215.351 217.126 215.593 217.455 215.717 217.905C216.005 218.955 215.431 219.903 214.736 220.626C214.301 221.078 213.737 221.987 213.224 222.284C212.971 222.431 212.452 222.326 212.162 222.326C211.893 222.326 211.348 222.509 211.104 222.624C210.745 222.794 210.289 222.494 209.833 222.667" stroke="#00ADB5" stroke-opacity="0.5" stroke-linecap="round" stroke-linejoin="round"/>
<path d="M200.434 207.02C200.764 208.159 201.009 209.106 201.56 210.082C201.787 210.482 201.756 210.846 201.656 211.315C201.539 211.859 201.157 213.136 201.456 213.695C201.915 214.555 201.905 215.465 201.905 216.417C201.905 217.334 203.283 217.732 203.735 218.202C204.406 218.901 204.115 219.792 205.22 220.097C205.461 220.163 205.839 220.167 206.028 220.328C206.171 220.45 206.339 220.756 206.527 220.791C206.916 220.865 207.438 220.784 207.79 220.947C208.083 221.083 208.298 221.279 208.566 221.434C208.862 221.604 209.266 221.413 209.588 221.58C210.687 222.152 210.196 221.608 209.424 220.966" stroke="#00ADB5" stroke-opacity="0.5" stroke-linecap="round" stroke-linejoin="round"/>
<path d="M119.104 164.311C116.92 167.219 107.544 178.853 115.533 181.486C118.013 182.303 121.24 180.424 123.913 180.696C127.692 181.079 129.816 184.422 130.746 187.893C131.816 191.89 125.909 198.998 128.749 201.147C133.613 204.827 140.617 198.604 144.637 203.546C146.915 206.347 144.519 210.417 145.93 203.809" stroke="#00ADB5" stroke-opacity="0.5" stroke-linecap="round" stroke-linejoin="round"/>
<path d="M228.779 119.02C230.884 121.922 235.893 128.459 237.777 132.186C239.381 135.359 237.36 135.232 235.64 133.971C233.584 132.464 233.872 129.258 234.459 127.037C236.44 119.541 249.264 112.649 250.712 124.17C251.221 128.217 247.744 135.021 243.007 133.415C236.754 131.295 237.153 121.365 241.883 117.675C246.72 113.899 254.649 118.237 254.649 124.404C254.649 131.25 246.828 133.37 243.795 127.33C241.038 121.84 245.923 116.097 251.162 115.275C253.089 114.973 258.066 117.289 254.592 118.494" stroke="#00ADB5" stroke-opacity="0.5" stroke-linecap="round" stroke-linejoin="round"/>
<path d="M334.563 171.158C331.286 174.546 320.928 182.447 329.643 185.523C334.713 187.313 339.407 184.379 342.549 180.374C346.016 175.955 346.604 168.966 341.087 166.096C336.796 163.864 333.098 160.278 329.502 165.891" stroke="#00ADB5" stroke-opacity="0.5" stroke-linecap="round" stroke-linejoin="round"/>
<path d="M446.422 217.502C440.164 221.381 430.661 226.066 440.349 229.732C441.838 230.295 442.807 229.928 444.117 228.971C448.96 225.43 449.244 224.012 448.953 218.555C448.76 214.942 443.682 215.768 441.361 216.975C437.937 218.756 435.549 222.321 434.162 225.928C432.296 230.782 441.943 230.485 443.273 224.641C444.107 220.977 440.079 215.773 437.312 220.252C433.645 226.187 439.24 231.494 442.767 225.285C446.145 219.337 438.252 216.884 436.131 223.822C433.341 232.944 449.923 223.039 443.892 219.901C440.296 218.031 434.226 229.908 440.855 226.952C448.904 223.363 439.899 218.073 439.899 226.455C439.899 233.257 450.711 223.386 443.667 220.72C442.056 220.111 440.466 225.466 441.614 226.66C443.61 228.736 447.078 223.359 446.9 221.423C446.14 213.112 438.321 234.241 447.632 224.553C449.758 222.34 449.671 218.34 446.141 220.691C444.058 222.078 442.74 227.966 446.675 226.601C450.455 225.29 450.454 218.007 446.394 219.696C443.916 220.728 443.019 224.377 440.349 223.822" stroke="#00ADB5" stroke-opacity="0.5" stroke-linecap="round" stroke-linejoin="round"/>
<path d="M391.758 271.746C390.714 272.946 374.036 294.357 382.423 283.449C384.341 280.954 386.103 278.5 388.721 276.749C390.335 275.669 391.89 275.003 393.277 273.56C394.792 271.983 392.644 272.087 392.292 275.374C391.987 278.236 392.221 290.733 391.758 290.705C388.632 290.514 386.582 287.312 383.688 286.258C382.138 285.693 377.541 286.506 378.823 285.438C381.958 282.829 391.56 275.346 388.721 278.3C386.571 280.537 382.151 288.947 383.66 286.199C384.733 284.245 387.635 277.879 387.203 278.943C386.313 281.136 384.764 284.893 384.897 287.311C385.023 289.606 389.404 283.958 389.677 283.39C391.708 279.164 387.506 288.668 389.003 286.404C390.35 284.364 394.906 279.179 391.646 284.268C390.932 285.382 395.024 280.244 394.289 281.342C394.076 281.661 392.221 284.898 393.305 283.771C397.185 279.733 391.467 283.931 390.746 282.805" stroke="#00ADB5" stroke-opacity="0.5" stroke-linecap="round" stroke-linejoin="round"/>
<path d="M357.846 359.168C359.618 356.543 369.743 344.961 361.418 344.451C360.011 344.365 357.109 343.89 355.934 344.89C353.14 347.269 354.352 353.685 358.128 354.399C363.135 355.346 367.827 348.222 362.402 345.475C356.733 342.606 343.353 354.131 349.129 358.875C360.502 368.217 370.786 341.07 356.075 344.978C342.732 348.523 354.487 362.823 360.546 353.609C367.033 343.744 347.029 343.659 350.563 354.692C352.307 360.133 358.028 357.507 359.056 353.112C360.562 346.668 354.403 349.329 354.303 353.785C354.197 358.56 361.268 349.92 357.031 350.303C353.969 350.58 353.667 354.955 351.266 354.955" stroke="#00ADB5" stroke-opacity="0.5" stroke-linecap="round" stroke-linejoin="round"/>
<path d="M156.4 309.664C157.422 314.489 159.437 329.088 159.437 324.146C159.437 320.735 156.932 317.552 156.428 314.14C156.251 312.948 156.615 309.422 155.64 308.611C154.974 308.056 161.276 313.16 162.951 314.14C166.008 315.929 168.199 319.271 170.853 315.72C172.127 314.016 175.876 313.78 176.392 313.35C180.14 310.231 179.796 305.575 180.667 301.501C180.977 300.048 180.189 306.462 180.189 308.347C180.189 310.759 180.607 313.953 181.229 316.218C182.112 319.434 181.759 310.357 180.92 308.611C179.557 305.774 179.682 303.257 179.682 300.184C179.682 298.971 188.144 314.179 186.656 315.34C186.034 315.825 177.749 313.447 175.24 314.287C173.078 315.009 171.103 315.853 169.053 316.92C168.493 317.211 167.568 318.273 167.929 317.973C169.214 316.903 173.145 313.979 171.584 314.521C169.44 315.264 167.333 317.423 165.398 318.617C161.75 320.866 160.57 320.552 159.043 324.41C158.823 324.966 161.546 324.895 162.08 325.053C165.91 326.192 168.318 323.088 171.697 321.66C176.058 319.816 181.073 316.03 185.756 315.457C189.292 315.024 183.916 313.734 183.732 313.35" stroke="#00ADB5" stroke-opacity="0.5" stroke-linecap="round" stroke-linejoin="round"/>
<path d="M349.748 106.908C359.287 103.726 374.736 100.067 383.266 92.8056C384.814 91.488 387.211 90.225 386.669 87.6855C384.631 78.1455 380.198 75.9081 371.456 76.9187C366.607 77.4792 361.954 82.1327 357.453 84.0283C352.819 85.9798 348.183 88.5438 343.955 91.3427C339.677 94.1756 342.156 95.5788 342.156 100.471C342.156 103.161 343.7 106.908 346.458 106.908C347.715 106.908 351.318 105.855 347.751 105.855C344.952 105.855 340.607 106.296 338.106 104.918C336.197 103.866 339.967 101.795 340.862 101.671C344.061 101.227 337.196 104.483 336.504 104.714C335.079 105.188 341.644 100.011 337.994 101.232C334.037 102.555 339.91 99.0065 341.143 98.3646C342.536 97.6401 341.321 98.7871 341.65 98.1891C342.175 97.2321 345.217 93.7164 342.465 96.5799C341.544 97.5385 344.544 94.9448 345.558 94.093C347.467 92.4886 345.045 94.9228 344.574 95.3218C342.403 97.1605 341.894 95.6768 340.131 96.4921C339.394 96.8329 337.6 97.9632 337.6 96.6384C337.6 94.3527 345.352 93.3114 346.767 93.2445C355.437 92.8345 361.504 88.8553 369.488 86.7785C373.33 85.7792 377.529 84.3398 381.129 82.5654C383.799 81.2494 389.148 77.1292 391.983 77.972C393.097 78.3031 375.91 88.7084 380.848 85.3156C384.932 82.5091 389.617 80.5384 383.491 85.813C378.584 90.0386 387.217 85.1167 387.906 85.4034C389.144 85.9186 380.284 91.1831 387.034 87.9488C389.615 86.7119 391.758 86.6508 391.758 83.7357C391.758 79.7787 392.799 75.0887 387.962 76.9187C382.381 79.0303 377.902 83.5438 372.131 85.3156C368.153 86.5371 364.277 88.0795 360.377 89.5288C355.851 91.2104 347.66 93.0909 344.433 97.1943C342.714 99.3812 339.651 107.904 345.98 104.216C351.786 100.833 352.71 93.9889 355.822 88.5925C357.367 85.9121 353.128 94.2538 352.504 97.3113C351.785 100.828 354.966 104.875 358.605 104.216C362.598 103.494 366.797 97.7573 368.222 94.2685C375.072 77.4999 362.648 93.7638 366.17 97.4284C369.907 101.317 375.603 91.0152 376.349 88.4755C377.247 85.4154 377.775 81.6434 378.851 78.7327C380.247 74.9575 371.337 79.2093 370.5 79.6396C365.866 82.0227 362.63 85.2016 359.477 89.4117C358.336 90.9357 353.755 98.1088 356.89 99.7397C361.092 101.925 366.25 95.1317 366.366 91.6061C366.762 79.6631 357.311 85.7839 351.604 90.465C348.077 93.3576 351.141 99.1388 351.772 98.4816" stroke="#00ADB5" stroke-opacity="0.5" stroke-linecap="round" stroke-linejoin="round"/>
<path d="M221.693 392.346C221.473 392.529 213.145 400.003 213.145 397.876C213.145 396.63 214.066 395.296 214.888 394.482C216.512 392.872 222.929 391.633 221.383 395.565C220.347 398.201 216.111 402.087 214.916 397.115C214.42 395.051 217.826 390.908 219.893 392.668C222.173 394.609 217.271 397.082 215.731 396.208C212.981 394.647 216.284 389.09 218.937 390.24C221.712 391.443 217.896 394.731 216.631 395.389C213.675 396.927 214.089 394.441 212.582 392.873" stroke="#00ADB5" stroke-opacity="0.5" stroke-linecap="round" stroke-linejoin="round"/>
<path d="M84.5268 391.82C87.4445 396.822 93.0014 402.013 87.3388 406.566C85.8782 407.74 77.2621 412.435 77.7782 406.975C78.4068 400.326 87.9302 400.178 88.5198 394.219C89.1029 388.325 75.5752 390.546 72.4918 386.553C70.5601 384.052 69.0024 378.51 69.4549 375.318C69.6311 374.075 72.6602 371.663 72.3512 373.914C71.7855 378.034 59.0174 388.588 66.5867 392.054C71.6616 394.377 72.9709 388.495 76.7097 387.08C84.4109 384.166 72.8855 405.777 72.8855 400.246" stroke="#00ADB5" stroke-opacity="0.5" stroke-linecap="round" stroke-linejoin="round"/>
<path d="M332.539 460.283C330.195 466.054 325.453 483.84 325.453 477.574C325.453 476.597 325.635 475.825 325.959 474.912C327.483 470.621 329.247 466.628 331.808 462.857C333.206 460.799 334.871 454.772 336.869 459.346C337.802 461.48 340.469 467.422 339.344 469.762C337.932 472.7 333.55 474.385 330.627 474.502C329.866 474.532 321.881 475.624 324.469 473.156C327.509 470.256 330.451 461.436 335.042 460.839C335.75 460.746 337.231 461.239 337.854 461.599C338.95 462.233 337.614 463.378 337.094 464.262C336.471 465.322 331.536 472.483 331.527 472.161C331.387 467.362 336.119 460.395 338.669 456.772C339.584 455.472 334.718 464.291 333.608 466.281C332.748 467.82 333.869 471.092 330.008 470.289" stroke="#00ADB5" stroke-opacity="0.5" stroke-linecap="round" stroke-linejoin="round"/>
<path d="M175.633 36.8648C173.375 46.0569 171.363 54.8151 170.544 64.1915C170.462 65.1294 169.892 65.7358 170.459 66.4736C171.304 67.5717 173.537 60.5897 174.396 58.7203C177.12 52.7949 180.189 50.4566 180.189 43.1844C180.189 42.1351 180.189 36.0956 180.189 40.0831C180.189 43.4685 180.805 46.8144 180.582 50.2063C180.414 52.77 178.049 59.6889 179.795 57.8718C182.49 55.0672 180.331 41.0049 176.111 40.639C170.352 40.1396 167.575 53.129 166.916 57.1696C166.151 61.8708 169.336 63.839 172.849 60.1832C177.645 55.1934 178.685 44.9347 174.565 39.0884C168.904 31.0564 165.189 45.5488 164.723 49.0945C163.669 57.1151 167.974 59.6853 173.074 53.9806C174.95 51.8824 178.732 48.2543 177.939 44.9984C176.884 40.6676 170.732 44.8731 169.503 46.7539C167.762 49.4209 167.784 56.064 170.6 57.9596C173.229 59.7295 175.787 52.3957 175.493 50.5574C174.244 42.7611 160.12 55.1374 167.141 59.5688C173.252 63.4256 177.303 46.1709 169.784 48.3046C167.691 48.8987 162.718 54.7705 167.029 54.7705" stroke="#00ADB5" stroke-opacity="0.5" stroke-linecap="round" stroke-linejoin="round"/>
<path d="M41.5042 186.957C39.2297 193.662 37.5923 197.942 31.8311 201.703C30.3846 202.647 28.473 204.318 28.1756 206.209C27.5403 210.249 33.6649 214.701 37.1457 213.494C44.4799 210.95 33.3816 203.397 32.1967 201.205C30.1336 197.389 37.5901 190.534 41.0262 192.545C43.7008 194.111 44.8864 199.566 43.3038 202.229C40.9983 206.11 36.043 206.263 32.1686 205.653C29.083 205.166 22.9024 205.828 24.717 210.597C26.9875 216.565 37.7035 213.437 39.3109 208.374C40.8758 203.444 32.4037 201.586 34.2213 196.963C35.4697 193.788 39.4118 189.824 42.9101 189.824C47.1006 189.824 42.9158 197.969 42.2915 199.245C39.5348 204.883 35.317 205.445 29.9753 206.969C19.9217 209.837 30.7523 210.241 31.3812 206.969" stroke="#00ADB5" stroke-opacity="0.5" stroke-linecap="round" stroke-linejoin="round"/>
<path d="M29.3566 259.107C28.2821 263.316 25.1054 270.501 25.4199 275.081C25.5672 277.228 26.1308 270.84 26.3759 268.703C26.8431 264.632 27.3775 260.034 29.4691 256.473C29.8403 255.841 38.4247 266.991 39.1983 268.82C41.2688 273.716 38.6766 272.784 35.4304 274.379C33.6261 275.266 21.3145 279.788 21.3145 278.592C21.3145 277.34 23.6355 274.795 24.1826 273.735C25.8951 270.42 27.7325 266.258 28.4568 262.559C30.0036 254.658 28.8504 270.917 28.8504 272.156C28.8504 272.907 29.1312 277.305 27.4445 277.305C25.3336 277.305 28.8716 273.171 29.5815 271.102C30.3345 268.909 33.3314 262.444 32.5903 260.131C31.5407 256.854 31.0156 266.89 30.9032 270.342C30.8269 272.681 29.7389 276.586 31.4937 272.799C32.0528 271.593 33.8577 266.645 33.8276 267.006C33.5731 270.051 32.3935 273.19 32.3935 276.252C32.3935 279.385 33.9821 269.298 36.7238 268.001C37.4055 267.679 36.4427 273.625 36.4427 274.496C36.4427 276.081 37.9049 268.405 37.9049 269.99C37.9049 270.432 37.2982 273.103 36.8363 272.273C34.9434 268.871 33.5193 266.768 29.6378 265.543C27.87 264.985 22.2509 265.368 24.0983 265.368C25.3126 265.368 27.2197 260.971 28.5692 262.12C30.3598 263.644 27.9024 268.51 27.332 270.166C26.398 272.877 25.8132 269.064 28.1193 269.347C30.5223 269.641 28.0707 278.873 29.4128 276.778C30.0357 275.806 31.9226 271.01 31.8592 271.57C30.634 282.406 30.8889 268.608 32.8996 271.746" stroke="#00ADB5" stroke-opacity="0.5" stroke-linecap="round" stroke-linejoin="round"/>
<path d="M279.9 115.861C286.34 115.53 292.558 118.007 291.541 110.068C291.037 106.134 288.918 99.7022 290.023 95.8484C291.195 91.757 298.395 82.5299 292.244 79.6396C287.086 77.2159 280.345 84.0698 279.394 88.7095C278.998 90.6392 279.082 96.6676 282.149 96.6676C284.467 96.6676 285.947 94.2999 287.97 96.4043C290.614 99.1553 291.086 101.665 289.207 105.123C284.698 113.424 266.857 104.152 276.469 94.1514C277.787 92.7807 282.997 86.494 285.467 88.2999C288.865 90.7844 288.406 97.2529 286.648 100.471C284.896 103.68 278.464 107.041 275.935 102.929C274.685 100.897 275.283 99.5349 277.369 99.5349" stroke="#00ADB5" stroke-opacity="0.5" stroke-linecap="round" stroke-linejoin="round"/>
<path d="M333.822 165.146C334.416 164.896 352.932 155.385 352.071 160.611C351.609 163.415 351.918 166.031 352.296 168.832C352.441 169.904 354.951 178.253 352.437 178.253C347.752 178.253 343.18 175.805 338.49 176.732C336.545 177.116 332.673 178.502 332.528 175.269C332.42 172.844 330.484 161.945 335.087 163.01C338.881 163.887 339.046 160.754 336.352 167.72C335.97 168.709 333.457 176.14 333.878 175.795C338.088 172.353 340.398 165.735 344.254 161.722C346.662 159.217 342.534 169.273 342.033 170.529C339.47 176.947 346.019 165.09 346.757 163.917C349.993 158.766 347.536 167.987 347.038 169.505C345.54 174.068 350.143 165.548 351.987 164.414C358.095 160.658 352.324 173.63 351.031 170.939" stroke="#00ADB5" stroke-opacity="0.5" stroke-linecap="round" stroke-linejoin="round"/>
<path d="M283.949 264.373C284.24 272.114 284.11 276.337 290.416 271.453C292.206 270.068 291.445 273.346 291.007 274.145C290.274 275.48 285.977 282.189 290.304 279.616C291.399 278.965 294.353 277.665 294.353 280.172C294.353 280.568 293.029 285.412 294.325 284.063C296.449 281.853 296.487 273.521 296.602 270.283C296.628 269.576 296.925 268.754 296.321 269.113C293.219 270.957 291.746 280.615 290.135 284.385C288.745 287.64 284.736 283.805 282.43 282.279C278.06 279.385 280.809 281.44 280.912 281.225" stroke="#00ADB5" stroke-opacity="0.5" stroke-linecap="round" stroke-linejoin="round"/>
<path d="M249.025 333.363C249.006 333.608 248.412 348.726 248.518 341.38C248.551 339.137 248.489 336.893 248.518 334.65C248.602 328.281 249.695 331.236 252.343 333.86C253.557 335.063 258.011 337.66 257.292 340.092C257.08 340.809 249.929 342.104 248.8 342.55C247.952 342.884 242.951 346.161 242.951 346.002C242.951 342.089 244.275 337.854 244.722 333.948C245.669 325.677 251.169 347.818 251.527 342.228C251.612 340.912 251.555 333.078 251.555 335.031C251.555 336.486 252.568 344.241 252.568 339.156C252.568 338.005 252.568 336.854 252.568 335.704C252.568 335.161 252.852 337.758 253.046 337.254C253.747 335.43 252.568 331.762 252.568 336.23C252.568 341.246 251.216 337.635 248.265 337.635C245.741 337.635 244.295 347.26 245.594 345.007C246.732 343.035 244.491 335.002 245.482 339.127C246 341.286 247.247 338.899 248.012 338.103" stroke="#00ADB5" stroke-opacity="0.5" stroke-linecap="round" stroke-linejoin="round"/>
</svg>
